<?xml version="1.0" encoding="UTF-8" standalone="no"?>
<!-- Generator: Adobe Illustrator 19.1.0, SVG Export Plug-In . SVG Version: 6.00 Build 0)  -->

<svg
   xmlns:dc="http://purl.org/dc/elements/1.1/"
   xmlns:cc="http://creativecommons.org/ns#"
   xmlns:rdf="http://www.w3.org/1999/02/22-rdf-syntax-ns#"
   xmlns:svg="http://www.w3.org/2000/svg"
   xmlns="http://www.w3.org/2000/svg"
   xmlns:sodipodi="http://sodipodi.sourceforge.net/DTD/sodipodi-0.dtd"
   xmlns:inkscape="http://www.inkscape.org/namespaces/inkscape"
   version="1.1"
   id="Layer_1"
   x="0px"
   y="0px"
   viewBox="0 0 128 128"
   xml:space="preserve"
   inkscape:version="0.92.2 5c3e80d, 2017-08-06"
   sodipodi:docname="phpcs_icon.svg"
   width="128"
   height="128"><metadata
     id="metadata41"><rdf:RDF><cc:Work
         rdf:about=""><dc:format>image/svg+xml</dc:format><dc:type
           rdf:resource="http://purl.org/dc/dcmitype/StillImage" /><dc:title></dc:title></cc:Work></rdf:RDF></metadata><defs
     id="defs39" /><sodipodi:namedview
     pagecolor="#ffffff"
     bordercolor="#666666"
     borderopacity="1"
     objecttolerance="10"
     gridtolerance="10"
     guidetolerance="10"
     inkscape:pageopacity="0"
     inkscape:pageshadow="2"
     inkscape:window-width="1680"
     inkscape:window-height="1006"
     id="namedview37"
     showgrid="false"
     inkscape:zoom="1"
     inkscape:cx="60"
     inkscape:cy="-150.17156"
     inkscape:window-x="0"
     inkscape:window-y="0"
     inkscape:window-maximized="1"
     inkscape:current-layer="Layer_1" /><style
     type="text/css"
     id="style3">
	.st0{fill:#162740;}
	.st1{fill:#3C91CF;}
	.st2{fill:#FFFFFF;}
	.st3{fill:#ED1C24;}
</style><g
     id="g9"
     transform="translate(0,8)" /><flowRoot
     xml:space="preserve"
     id="flowRoot4386"
     style="font-style:normal;font-weight:normal;line-height:0.01%;font-family:sans-serif;letter-spacing:0px;word-spacing:0px;fill:#000000;fill-opacity:1;stroke:none;stroke-width:1px;stroke-linecap:butt;stroke-linejoin:miter;stroke-opacity:1"
     transform="translate(0,8)"><flowRegion
       id="flowRegion4388"><rect
         id="rect4390"
         width="152.03391"
         height="51.864407"
         x="-262.88135"
         y="-94.576271" /></flowRegion><flowPara
       id="flowPara4392"
       style="font-size:40px;line-height:1.25">CodeSn</flowPara></flowRoot><g
     id="g4463"
     transform="matrix(1.0666667,0,0,1.0666667,-2e-6,-2e-6)"><circle
       class="st0"
       cx="60"
       cy="60"
       r="60"
       id="circle7"
       style="fill:#6082bb;fill-opacity:1" /><path
       inkscape:connector-curvature="0"
       id="path35"
       d="m 22.892578,72.100782 c -0.375,0 -0.750781,0.149219 -1.050781,0.449219 -0.6,0.599999 -0.6,1.499609 0,2.099609 l 2.900391,2.900391 c 0.6,0.599999 1.499609,0.599999 2.099609,0 l 1.900391,-1.900391 2,1.900391 c 0.6,0.599999 1.499609,0.599999 2.099609,0 l 1.900391,-1.900391 2,1.900391 c 0.6,0.599999 1.499609,0.599999 2.099609,0 l 1.900391,-1.900391 2,1.900391 c 0.6,0.599999 1.499609,0.599999 2.099609,0 l 1.900391,-1.900391 2,1.900391 c 0.394277,0.394277 0.917278,0.524295 1.40039,0.40039 0.483112,0.123905 1.006114,-0.0061 1.400391,-0.40039 l 1.558593,-1.558594 1.640626,1.558594 c 0.394277,0.394277 0.917278,0.524295 1.40039,0.40039 0.483112,0.123905 1.006114,-0.0061 1.400391,-0.40039 l 1.558593,-1.558594 1.640626,1.558594 c 0.394277,0.394277 0.917278,0.524295 1.40039,0.40039 0.483112,0.123905 1.006114,-0.0061 1.400391,-0.40039 l 1.558593,-1.558594 1.640626,1.558594 c 0.394277,0.394277 0.917278,0.524295 1.40039,0.40039 0.483112,0.123905 1.006114,-0.0061 1.400391,-0.40039 l 1.898437,-1.900391 2,1.900391 c 0.6,0.599999 1.501563,0.599999 2.101563,0 l 1.898437,-1.900391 2,1.900391 c 0.6,0.599999 1.501563,0.599999 2.101563,0 l 1.898437,-1.900391 2.000004,1.900391 c 0.6,0.599999 1.50156,0.599999 2.10156,0 l 1.89844,-1.900391 2,1.900391 c 0.6,0.599999 1.50156,0.599999 2.10156,0 l 2.89844,-2.900391 c 0.6,-0.6 0.60039,-1.49961 0.90039,-2.099609 -0.3,-0.300001 -0.69961,-0.400391 -1.09961,-0.400391 -0.4,0 -0.79961,0.100391 -1.09961,0.400391 l -1.90039,1.90039 -1.90039,-1.90039 C 91.0418,72.25 90.64219,72.14961 90.24219,72.14961 h -0.0996 c -0.4,0 -0.79961,0.100391 -1.09961,0.400391 l -1.90039,1.90039 -1.90039,-1.90039 C 84.9422,72.25 84.54259,72.14961 84.14259,72.14961 h -0.0996 c -0.400002,0 -0.801565,0.100391 -1.101565,0.400391 l -1.898437,1.90039 -1.900391,-1.90039 C 78.842597,72.25 78.442988,72.14961 78.042988,72.14961 h -0.101563 c -0.4,0 -0.799609,0.100391 -1.099609,0.400391 l -1.900391,1.90039 -1.898437,-1.90039 C 72.742988,72.25 72.341425,72.14961 71.941425,72.14961 h -0.09961 c -0.05035,0 -0.100242,0.0084 -0.150391,0.01172 -0.05015,-0.0034 -0.100042,-0.01172 -0.15039,-0.01172 -0.4,0 -0.79961,0.100391 -1.09961,0.400391 l -1.75,1.75 -1.75,-1.75 C 66.641424,72.25 66.241815,72.14961 65.841815,72.14961 h -0.09961 c -0.034,0 -0.06762,0.0063 -0.101563,0.0078 -0.03329,-0.0014 -0.06626,-0.0078 -0.09961,-0.0078 h -0.09961 c -0.4,0 -0.799609,0.100391 -1.099609,0.400391 l -1.75,1.75 -1.75,-1.75 c -0.3,-0.300001 -0.69961,-0.400391 -1.099609,-0.400391 h -0.09961 c -0.03335,0 -0.06632,0.0064 -0.09961,0.0078 -0.03394,-0.0015 -0.06756,-0.0078 -0.101563,-0.0078 h -0.09961 c -0.4,0 -0.79961,0.100391 -1.099609,0.400391 l -1.75,1.75 -1.75,-1.75 C 54.442201,72.25 54.042592,72.14961 53.642592,72.14961 h -0.09961 c -0.034,0 -0.06762,0.0063 -0.101563,0.0078 -0.03329,-0.0014 -0.06626,-0.0078 -0.09961,-0.0078 h -0.09961 c -0.400001,0 -0.79961,0.100391 -1.09961,0.400391 l -1.75,1.75 -1.75,-1.75 C 48.248302,72.155723 47.7253,72.025705 47.242189,72.14961 h -0.09961 c -0.4,0 -0.801562,0.100391 -1.101562,0.400391 l -1.898438,1.90039 -1.90039,-1.90039 C 41.942188,72.25 41.542579,72.14961 41.142579,72.14961 h -0.101562 c -0.4,0 -0.79961,0.100391 -1.09961,0.400391 l -1.90039,1.90039 -1.898438,-1.90039 C 35.842579,72.25 35.441017,72.14961 35.041017,72.14961 h -0.09961 c -0.4,0 -0.799609,0.100391 -1.099609,0.400391 l -1.900391,1.90039 -1.90039,-1.90039 c -0.3,-0.300001 -0.69961,-0.400391 -1.09961,-0.400391 h -0.09961 c -0.4,0 -0.799609,0.100391 -1.099609,0.400391 l -1.900391,1.90039 -1.900391,-1.90039 c -0.3,-0.3 -0.673828,-0.449219 -1.048828,-0.449219 z"
       style="fill:#ed1c24" /><path
       sodipodi:nodetypes="ssssscccccccssscccccssscccsccsssccscsssssssccccsccsccssssscccssccsccssssscsss"
       inkscape:connector-curvature="0"
       id="rect4297"
       d="m 56.735655,31.914844 c -1.86729,0 -3.39648,0.05811 -3.39648,0.13086 0,0.0728 -0.64745,3.255765 -1.43946,7.072265 -0.79203,3.81649 -1.56448,7.839453 -1.71679,8.939453 -0.15231,1.1 -0.77401,4.345031 -1.38086,7.212891 l -1.10352,5.214844 h 3.36914 3.36719 l 0.29101,-1.357422 c 0.49815,-2.32791 2.28558,-11.570353 2.52735,-13.070313 l 0.23047,-1.429687 3,-0.08203 c 3.55935,-0.0988 4.13336,0.01345 4.73242,0.927734 0.42179,0.64374 0.39303,1.001736 -0.40039,5.066406 -0.4696,2.40578 -0.9974,5.239908 -1.17188,6.298828 -0.17449,1.05892 -0.39363,2.31388 -0.48828,2.78711 l -0.17187,0.859375 h 3.41601 3.41602 l 0.49414,-2.927735 c 0.27173,-1.61072 0.87419,-4.793695 1.33789,-7.072265 0.99081,-4.86873 1.04448,-6.469175 0.27148,-7.984375 -1.26695,-2.48343 -3.22233,-3.158203 -9.14843,-3.158203 h -4.17969 l 0.76953,-3.714844 0.76953,-3.712891 z m -29.07422,7.394532 -0.2832,1.029296 c -0.15626,0.56594 -0.50019,2.341513 -0.76367,3.945313 -0.26348,1.60381 -1.17818,6.322048 -2.03321,10.486328 -0.85503,4.16429 -1.67148,8.472269 -1.81445,9.572266 -0.14298,1.1 -0.34654,2.417024 -0.45117,2.927734 L 22.126285,68.2 h 3.30468 c 1.8175,0 3.36694,-0.100949 3.44336,-0.224609 0.0764,-0.12366 0.34512,-1.634652 0.59766,-3.357422 0.25254,-1.722767 0.52757,-3.357812 0.61133,-3.632812 0.13583,-0.44596 0.60605,-0.500816 4.34765,-0.509766 6.60285,-0.0158 8.93017,-0.769192 11.61719,-3.757812 2.53528,-2.81983 3.74891,-6.190129 3.51563,-9.761719 -0.21379,-3.27295 -1.70463,-5.45583 -4.65235,-6.8125 -1.36412,-0.62783 -1.78612,-0.662194 -9.33984,-0.746094 z m 55.52735,0.09961 -7.4004,0.07617 -0.80078,4.285156 c -1.11386,5.96509 -1.78965,9.431054 -3.0664,15.714844 -0.60664,2.98571 -1.18738,6.168685 -1.29102,7.072265 l -0.1875,1.642578 h 3.27539 c 2.63625,0 3.30622,-0.08369 3.4375,-0.425781 0.0897,-0.2338 0.2418,-1.100824 0.33594,-1.927734 0.0941,-0.82691 0.30194,-2.145934 0.46289,-2.931641 0.54718,-2.67108 0.0858,-2.429687 4.61914,-2.429687 6.68185,0 9.28665,-0.892167 12.04688,-4.123047 2.33758,-2.73617 3.47083,-6.13893 3.21875,-9.66211 -0.16652,-2.32728 -1.14362,-4.124803 -3.02344,-5.558593 -2.15478,-1.6435 -3.32203,-1.818122 -11.62695,-1.732422 z m -49.80665,4.707031 3.23047,0.160156 c 3.35059,0.16501 4.39202,0.477573 5.4375,1.632813 1.11001,1.22656 0.48026,5.091234 -1.19922,7.365234 -1.21447,1.64439 -2.65431,2.170401 -6.29687,2.300781 -1.76786,0.0633 -3.21591,0.0042 -3.21875,-0.130859 -0.003,-0.13482 0.37814,-2.238108 0.84766,-4.673828 0.46952,-2.43571 0.93067,-4.928936 1.02539,-5.541016 z m 49.36524,0.06836 c 0.47044,-0.0067 1.10572,0.04198 1.98047,0.08398 3.21245,0.15424 4.66729,0.57476 5.60351,1.625 1.07588,1.2069 0.4307,5.243049 -1.17968,7.380859 -1.24238,1.64928 -2.67425,2.170551 -6.3125,2.300781 -2.82405,0.10109 -3.2129,0.05843 -3.21289,-0.349609 0,-0.25541 0.25463,-1.650732 0.5664,-3.101562 0.31178,-1.45083 0.70012,-3.60268 0.86328,-4.78125 0.36375,-2.62761 0.28009,-3.138161 1.69141,-3.158203 z"
       style="fill:#ffffff;fill-opacity:1;stroke:none;stroke-width:0.1;stroke-miterlimit:4;stroke-dasharray:none;stroke-opacity:1" /><g
       id="flowRoot4394"
       style="font-style:normal;font-variant:normal;font-weight:normal;font-stretch:normal;font-size:12.5px;line-height:125%;font-family:sans-serif;-inkscape-font-specification:sans-serif;letter-spacing:0px;word-spacing:0px;fill:#ffffff;fill-opacity:1;stroke:none;stroke-width:1px;stroke-linecap:butt;stroke-linejoin:miter;stroke-opacity:1"
       transform="translate(297.22449,172.7398)"><path
         inkscape:connector-curvature="0"
         id="path4424"
         d="m -266.01782,-90.527452 v 1.300049 q -0.62256,-0.579834 -1.33057,-0.866699 -0.7019,-0.286866 -1.49536,-0.286866 -1.5625,0 -2.39258,0.958252 -0.83008,0.952149 -0.83008,2.758789 0,1.800538 0.83008,2.75879 0.83008,0.952148 2.39258,0.952148 0.79346,0 1.49536,-0.286865 0.70801,-0.286865 1.33057,-0.866699 v 1.287841 q -0.64697,0.439453 -1.37329,0.65918 -0.72022,0.219727 -1.52588,0.219727 -2.06909,0 -3.25928,-1.263428 -1.19019,-1.269531 -1.19019,-3.460694 0,-2.197265 1.19019,-3.460693 1.19019,-1.269531 3.25928,-1.269531 0.81787,0 1.53808,0.219726 0.72632,0.213623 1.36109,0.646973 z" /><path
         inkscape:connector-curvature="0"
         id="path4426"
         d="m -261.50122,-88.165391 q -0.90332,0 -1.42822,0.708007 -0.52491,0.701905 -0.52491,1.928711 0,1.226807 0.5188,1.934815 0.52491,0.701904 1.43433,0.701904 0.89722,0 1.42212,-0.708008 0.5249,-0.708007 0.5249,-1.928711 0,-1.214599 -0.5249,-1.922607 -0.5249,-0.714111 -1.42212,-0.714111 z m 0,-0.952149 q 1.46484,0 2.30102,0.952149 0.83619,0.952148 0.83619,2.636718 0,1.678467 -0.83619,2.636719 -0.83618,0.952149 -2.30102,0.952149 -1.47095,0 -2.30713,-0.952149 -0.83008,-0.958252 -0.83008,-2.636719 0,-1.68457 0.83008,-2.636718 0.83618,-0.952149 2.30713,-0.952149 z" /><path
         inkscape:connector-curvature="0"
         id="path4428"
         d="m -252.01025,-87.915147 v -3.698731 h 1.12304 v 9.497071 h -1.12304 v -1.025391 q -0.35401,0.610352 -0.89722,0.909424 -0.53711,0.292969 -1.29395,0.292969 -1.23901,0 -2.02026,-0.98877 -0.77515,-0.988769 -0.77515,-2.600098 0,-1.611328 0.77515,-2.600097 0.78125,-0.98877 2.02026,-0.98877 0.75684,0 1.29395,0.299072 0.54321,0.292969 0.89722,0.903321 z m -3.82691,2.386474 q 0,1.239014 0.50659,1.947022 0.5127,0.701904 1.40381,0.701904 0.89112,0 1.40381,-0.701904 0.5127,-0.708008 0.5127,-1.947022 0,-1.239013 -0.5127,-1.940918 -0.51269,-0.708007 -1.40381,-0.708007 -0.89111,0 -1.40381,0.708007 -0.50659,0.701905 -0.50659,1.940918 z" /><path
         inkscape:connector-curvature="0"
         id="path4430"
         d="m -242.72681,-85.815538 v 0.549317 h -5.16357 q 0.0732,1.159668 0.6958,1.770019 0.62866,0.604248 1.74561,0.604248 0.64697,0 1.25122,-0.158691 0.61035,-0.158692 1.20849,-0.476074 v 1.062011 q -0.60425,0.256348 -1.23901,0.390625 -0.63477,0.134278 -1.28784,0.134278 -1.63575,0 -2.594,-0.952149 -0.95215,-0.952148 -0.95215,-2.575683 0,-1.678467 0.90332,-2.661133 0.90943,-0.98877 2.44751,-0.98877 1.3794,0 2.17896,0.891113 0.80566,0.88501 0.80566,2.410889 z m -1.12304,-0.32959 q -0.0122,-0.921631 -0.5188,-1.470947 -0.50049,-0.549316 -1.33057,-0.549316 -0.93994,0 -1.50757,0.531006 -0.56152,0.531005 -0.64697,1.495361 l 4.00391,-0.0061 z" /><path
         inkscape:connector-curvature="0"
         id="path4432"
         d="m -235.39648,-90.930284 v 1.202393 q -0.70191,-0.335694 -1.32447,-0.500489 -0.62256,-0.164795 -1.20239,-0.164795 -1.00708,0 -1.5564,0.390625 -0.54321,0.390625 -0.54321,1.11084 0,0.604248 0.36011,0.915528 0.36621,0.305175 1.37939,0.494384 l 0.74463,0.152588 q 1.3794,0.262451 2.03247,0.927735 0.65918,0.659179 0.65918,1.770019 0,1.324463 -0.89111,2.008057 -0.88501,0.683594 -2.6001,0.683594 -0.64697,0 -1.37939,-0.146485 -0.72632,-0.146484 -1.50757,-0.433349 v -1.269532 q 0.75073,0.421143 1.47095,0.634766 0.72021,0.213623 1.41601,0.213623 1.05591,0 1.62964,-0.415039 0.57373,-0.415039 0.57373,-1.184082 0,-0.671387 -0.41504,-1.049805 -0.40893,-0.378418 -1.34888,-0.567627 l -0.75073,-0.146484 q -1.37939,-0.274658 -1.99585,-0.860596 -0.61645,-0.585937 -0.61645,-1.629638 0,-1.208497 0.84839,-1.904297 0.85449,-0.695801 2.34985,-0.695801 0.64087,0 1.30615,0.115967 0.66528,0.115966 1.36109,0.3479 z" /><path
         inkscape:connector-curvature="0"
         id="path4434"
         d="m -227.2666,-86.242784 v 4.125977 h -1.12305 v -4.089356 q 0,-0.970459 -0.37842,-1.452637 -0.37841,-0.482177 -1.13525,-0.482177 -0.90942,0 -1.43433,0.579834 -0.5249,0.579834 -0.5249,1.58081 v 3.863526 h -1.12915 v -6.835938 h 1.12915 v 1.062012 q 0.40283,-0.616455 0.94605,-0.921631 0.54931,-0.305176 1.26342,-0.305176 1.17798,0 1.78223,0.732422 0.60425,0.726318 0.60425,2.142334 z" /><path
         inkscape:connector-curvature="0"
         id="path4436"
         d="m -225.0144,-88.952745 h 1.12304 v 6.835938 h -1.12304 z m 0,-2.661133 h 1.12304 v 1.422119 h -1.12304 z" /><path
         inkscape:connector-curvature="0"
         id="path4438"
         d="m -218.08691,-91.613878 v 0.933838 h -1.07422 q -0.60425,0 -0.84229,0.244141 -0.23193,0.24414 -0.23193,0.878906 v 0.604248 h 1.84936 v 0.872803 h -1.84936 v 5.963135 h -1.12915 v -5.963135 h -1.07422 v -0.872803 h 1.07422 v -0.476074 q 0,-1.141358 0.531,-1.660156 0.53101,-0.524903 1.68457,-0.524903 z" /><path
         inkscape:connector-curvature="0"
         id="path4440"
         d="m -213.66797,-91.613878 v 0.933838 h -1.07422 q -0.60425,0 -0.84228,0.244141 -0.23194,0.24414 -0.23194,0.878906 v 0.604248 h 1.84937 v 0.872803 h -1.84937 v 5.963135 h -1.12915 v -5.963135 h -1.07422 v -0.872803 h 1.07422 v -0.476074 q 0,-1.141358 0.53101,-1.660156 0.53101,-0.524903 1.68457,-0.524903 z" /><path
         inkscape:connector-curvature="0"
         id="path4442"
         d="m -206.86255,-85.815538 v 0.549317 h -5.16357 q 0.0732,1.159668 0.6958,1.770019 0.62866,0.604248 1.7456,0.604248 0.64698,0 1.25122,-0.158691 0.61036,-0.158692 1.2085,-0.476074 v 1.062011 q -0.60425,0.256348 -1.23901,0.390625 -0.63477,0.134278 -1.28785,0.134278 -1.63574,0 -2.59399,-0.952149 -0.95215,-0.952148 -0.95215,-2.575683 0,-1.678467 0.90332,-2.661133 0.90943,-0.98877 2.44751,-0.98877 1.3794,0 2.17896,0.891113 0.80566,0.88501 0.80566,2.410889 z m -1.12305,-0.32959 q -0.0122,-0.921631 -0.51879,-1.470947 -0.50049,-0.549316 -1.33057,-0.549316 -0.93994,0 -1.50757,0.531006 -0.56152,0.531005 -0.64697,1.495361 l 4.0039,-0.0061 z" /><path
         inkscape:connector-curvature="0"
         id="path4444"
         d="m -201.08252,-87.90294 q -0.18921,-0.109863 -0.41504,-0.158692 -0.21973,-0.05493 -0.48828,-0.05493 -0.95215,0 -1.46484,0.622558 -0.5066,0.616455 -0.5066,1.776123 v 3.601075 h -1.12915 v -6.835938 h 1.12915 v 1.062012 q 0.35401,-0.622559 0.92164,-0.921631 0.56762,-0.305176 1.37939,-0.305176 0.11597,0 0.25635,0.01831 0.14038,0.01221 0.31128,0.04272 l 0.006,1.153565 z" /></g></g></svg>